<?xml version="1.0" standalone="no"?>
<!DOCTYPE svg PUBLIC "-//W3C//DTD SVG 20010904//EN"
 "http://www.w3.org/TR/2001/REC-SVG-20010904/DTD/svg10.dtd">
<svg version="1.0" xmlns="http://www.w3.org/2000/svg"
 width="1000.000000pt" height="1000.000000pt" viewBox="0 0 1000.000000 1000.000000"
 preserveAspectRatio="xMidYMid meet">
<metadata>
Created by potrace 1.14, written by Peter Selinger 2001-2017
</metadata>
<g transform="translate(0.000000,1000.000000) scale(0.100000,-0.100000)"
fill="#000000" stroke="none">
<path d="M5187 9404 c-1 -1 -22 -5 -46 -9 -57 -8 -174 -50 -231 -83 -62 -35
-109 -72 -215 -167 -49 -44 -95 -84 -101 -90 -6 -5 -31 -28 -55 -50 -24 -22
-109 -99 -189 -170 -80 -71 -147 -132 -150 -135 -3 -3 -48 -43 -100 -90 -52
-47 -97 -87 -100 -90 -3 -3 -48 -43 -100 -90 -52 -47 -97 -87 -100 -90 -3 -3
-50 -45 -105 -95 -55 -49 -102 -92 -105 -95 -3 -3 -88 -79 -190 -170 -102 -91
-194 -174 -206 -185 -12 -11 -54 -49 -94 -85 -40 -36 -78 -70 -84 -75 -6 -6
-56 -51 -111 -100 -55 -49 -102 -92 -105 -95 -3 -3 -48 -43 -100 -90 -125
-112 -178 -160 -211 -190 -15 -14 -60 -54 -100 -90 -40 -36 -77 -69 -83 -75
-6 -5 -74 -66 -151 -135 -77 -69 -144 -130 -150 -136 -5 -6 -71 -64 -145 -130
-74 -65 -137 -121 -140 -125 -3 -3 -52 -47 -110 -99 -58 -52 -107 -97 -110
-100 -3 -3 -45 -41 -95 -85 -49 -43 -97 -86 -106 -95 -9 -8 -49 -44 -89 -80
-40 -36 -80 -72 -89 -80 -9 -9 -56 -52 -106 -95 -49 -44 -94 -85 -100 -91 -8
-9 -106 -96 -339 -304 -22 -19 -47 -42 -56 -50 -9 -8 -59 -53 -111 -100 -224
-201 -277 -263 -336 -390 -51 -109 -67 -190 -67 -330 0 -98 5 -142 22 -203 78
-275 285 -479 562 -553 97 -25 256 -27 361 -4 173 38 281 104 489 300 25 24
138 124 209 186 18 16 38 28 43 26 5 -1 7 2 4 7 -4 5 5 18 19 30 15 11 65 56
113 100 125 114 145 130 154 125 5 -3 7 -1 6 4 -3 10 26 39 141 142 40 36 77
64 82 63 5 -2 8 0 6 5 -2 7 35 43 132 130 19 17 39 28 44 25 6 -3 7 -2 4 4 -3
5 17 29 45 54 27 24 65 58 82 74 18 17 70 64 116 105 46 41 92 83 102 93 10
10 24 15 30 11 6 -4 8 -3 5 3 -8 13 27 46 38 36 4 -5 5 -3 2 3 -4 6 6 22 22
35 16 13 66 59 112 101 46 42 93 85 105 95 12 10 56 50 99 88 91 82 86 77 150
134 28 24 75 67 105 95 30 28 118 107 195 176 77 68 147 131 156 139 9 9 31
30 50 46 116 103 235 210 239 215 3 3 48 43 100 90 52 47 100 90 106 95 69 63
251 226 333 300 19 16 44 39 55 50 12 11 62 56 111 99 50 44 95 85 100 90 6 6
48 45 95 85 47 41 90 80 95 86 6 5 73 66 150 135 150 134 219 196 245 220 8 8
60 55 115 105 55 49 118 106 140 126 22 20 63 56 90 80 130 113 226 268 263
424 104 438 -173 865 -618 951 -59 12 -233 17 -243 8z"/>
<path d="M4418 5380 c-84 -14 -162 -41 -235 -80 -39 -21 -74 -36 -77 -34 -3 2
-4 1 -2 -2 3 -3 -16 -22 -42 -42 -26 -19 -50 -40 -53 -45 -4 -5 -12 -6 -19 -2
-8 5 -11 4 -7 -3 4 -5 -28 -41 -70 -79 -43 -37 -83 -74 -89 -82 -6 -8 -16 -11
-22 -7 -8 5 -10 1 -5 -10 5 -14 3 -16 -11 -11 -9 4 -15 3 -12 -2 7 -11 -59
-73 -68 -64 -4 5 -6 1 -4 -7 2 -9 -4 -14 -14 -14 -10 1 -16 -2 -13 -6 7 -12
-84 -92 -96 -84 -7 4 -9 3 -6 -3 4 -6 -24 -38 -61 -71 -37 -33 -84 -76 -106
-96 -21 -20 -43 -33 -50 -29 -6 3 -8 3 -4 -2 11 -11 -12 -36 -25 -28 -5 3 -7
2 -4 -4 4 -6 -13 -25 -36 -44 -23 -18 -50 -44 -61 -57 -10 -13 -25 -21 -33
-18 -8 3 -12 2 -9 -3 4 -5 -28 -40 -70 -78 -41 -37 -88 -80 -104 -94 -38 -34
-147 -131 -184 -163 -17 -14 -34 -22 -39 -19 -6 3 -7 1 -3 -5 7 -12 -110 -119
-125 -114 -6 1 -8 -1 -5 -6 3 -5 -23 -33 -56 -63 -93 -82 -109 -97 -158 -142
-25 -23 -108 -99 -185 -169 -159 -143 -179 -166 -237 -261 -214 -354 -109
-822 236 -1051 51 -34 156 -87 181 -92 35 -7 111 -30 115 -34 7 -8 280 -7 280
1 0 3 26 11 58 18 76 17 227 89 272 131 47 44 84 69 93 63 6 -3 7 -2 4 4 -8
13 48 67 62 59 7 -5 8 -1 4 10 -5 14 -3 16 11 11 9 -4 15 -3 12 2 -6 8 32 45
49 48 5 1 13 11 17 23 5 14 14 20 23 17 9 -4 12 -1 8 9 -3 7 -1 14 3 14 5 0
38 27 73 60 35 32 69 56 74 53 6 -3 7 -1 4 4 -4 6 2 18 12 27 15 13 20 14 24
4 3 -7 6 -3 6 8 1 20 25 40 44 35 5 -1 6 2 3 7 -3 5 11 24 32 42 20 17 57 51
82 74 25 22 86 77 135 121 50 44 97 87 105 95 8 8 53 49 100 90 47 41 92 82
100 90 8 8 56 51 105 95 50 44 95 85 101 90 6 6 46 42 89 80 43 39 83 75 89
80 6 6 56 51 111 100 145 130 175 157 203 183 14 12 50 44 80 70 83 72 95 84
126 124 15 21 33 35 39 31 5 -3 7 -2 4 4 -3 5 5 26 19 47 77 112 118 257 118
416 1 127 -5 166 -36 255 -62 178 -161 306 -313 406 -160 105 -370 150 -557
119z"/>
<path d="M7174 5129 c-28 -11 -68 -37 -89 -58 -25 -24 -117 -173 -242 -388
-111 -191 -272 -469 -358 -618 -86 -148 -167 -288 -180 -310 -28 -50 -195
-338 -224 -385 -11 -19 -28 -48 -37 -65 -23 -41 -367 -635 -415 -715 -75 -128
-88 -194 -53 -291 77 -213 374 -235 488 -36 13 23 72 125 131 227 60 102 184
318 278 480 93 162 180 311 192 330 19 30 181 310 235 405 9 17 148 257 309
533 161 277 300 522 310 545 25 57 21 151 -8 210 -26 53 -87 112 -140 134 -54
23 -139 23 -197 2z"/>
<path d="M3433 5125 c0 -8 4 -12 9 -9 5 3 6 10 3 15 -9 13 -12 11 -12 -6z"/>
<path d="M3346 5122 c-3 -5 1 -9 9 -9 8 0 12 4 9 9 -3 4 -7 8 -9 8 -2 0 -6 -4
-9 -8z"/>
<path d="M3595 5121 c-3 -5 -2 -12 3 -15 5 -3 9 1 9 9 0 17 -3 19 -12 6z"/>
<path d="M7930 5102 c-91 -35 -153 -125 -152 -221 1 -96 34 -153 130 -223 31
-23 59 -44 62 -48 3 -3 30 -24 60 -45 30 -22 62 -45 70 -52 8 -7 184 -139 390
-294 592 -445 565 -423 594 -482 43 -85 31 -191 -31 -263 -10 -12 -97 -79
-193 -150 -231 -168 -292 -213 -310 -227 -9 -7 -38 -28 -65 -47 -28 -19 -57
-40 -65 -47 -19 -15 -234 -173 -264 -193 -72 -49 -286 -208 -315 -234 -54 -50
-74 -106 -77 -216 -3 -112 13 -180 54 -230 65 -78 197 -109 281 -66 23 11 88
55 144 96 103 75 554 405 792 578 72 52 153 112 180 132 28 21 169 124 315
230 302 220 400 294 416 313 35 41 48 85 48 152 0 78 -21 131 -71 176 -15 14
-329 253 -698 530 -368 277 -676 509 -685 516 -68 56 -393 294 -420 308 -48
25 -135 28 -190 7z"/>
<path d="M2866 4962 c-3 -5 1 -9 9 -9 8 0 12 4 9 9 -3 4 -7 8 -9 8 -2 0 -6 -4
-9 -8z"/>
<path d="M2140 4726 c0 -2 8 -10 18 -17 15 -13 16 -12 3 4 -13 16 -21 21 -21
13z"/>
<path d="M1833 4325 c0 -8 4 -12 9 -9 5 3 6 10 3 15 -9 13 -12 11 -12 -6z"/>
<path d="M1916 4313 c-6 -14 -5 -15 5 -6 7 7 10 15 7 18 -3 3 -9 -2 -12 -12z"/>
<path d="M2226 4322 c-3 -5 1 -9 9 -9 8 0 12 4 9 9 -3 4 -7 8 -9 8 -2 0 -6 -4
-9 -8z"/>
<path d="M2705 4320 c-3 -6 1 -7 9 -4 18 7 21 14 7 14 -6 0 -13 -4 -16 -10z"/>
<path d="M2466 4158 c3 -5 10 -6 15 -3 13 9 11 12 -6 12 -8 0 -12 -4 -9 -9z"/>
<path d="M2706 4162 c-3 -5 1 -9 9 -9 8 0 12 4 9 9 -3 4 -7 8 -9 8 -2 0 -6 -4
-9 -8z"/>
<path d="M3755 2641 c-3 -5 -2 -12 3 -15 5 -3 9 1 9 9 0 17 -3 19 -12 6z"/>
<path d="M4313 2475 c0 -8 4 -12 9 -9 5 3 6 10 3 15 -9 13 -12 11 -12 -6z"/>
<path d="M3906 2402 c-3 -5 1 -9 9 -9 8 0 12 4 9 9 -3 4 -7 8 -9 8 -2 0 -6 -4
-9 -8z"/>
<path d="M4156 2242 c-3 -5 1 -9 9 -9 8 0 12 4 9 9 -3 4 -7 8 -9 8 -2 0 -6 -4
-9 -8z"/>
<path d="M4466 2242 c-3 -5 1 -9 9 -9 8 0 12 4 9 9 -3 4 -7 8 -9 8 -2 0 -6 -4
-9 -8z"/>
<path d="M3276 2153 c-6 -14 -5 -15 5 -6 7 7 10 15 7 18 -3 3 -9 -2 -12 -12z"/>
<path d="M3835 2161 c-3 -5 -2 -12 3 -15 5 -3 9 1 9 9 0 17 -3 19 -12 6z"/>
<path d="M4305 2160 c-3 -6 1 -7 9 -4 18 7 21 14 7 14 -6 0 -13 -4 -16 -10z"/>
<path d="M4450 2147 c0 -4 -6 -7 -12 -6 -21 4 -95 -12 -150 -32 -28 -10 -55
-16 -61 -12 -6 3 -7 1 -3 -5 6 -9 -8 -18 -39 -24 -5 -1 -16 -7 -22 -14 -7 -7
-29 -22 -50 -35 -21 -13 -55 -39 -77 -59 -21 -19 -42 -34 -47 -32 -5 1 -8 -1
-7 -6 3 -8 -71 -104 -85 -110 -4 -2 -4 -9 0 -15 4 -7 0 -8 -11 -4 -10 4 -15 3
-11 -4 4 -5 -9 -42 -28 -82 -19 -40 -40 -97 -47 -127 -7 -30 -16 -66 -20 -80
-10 -35 -10 -214 0 -249 5 -19 4 -33 -3 -41 -9 -9 -9 -11 -1 -7 16 9 24 -28
10 -44 -8 -9 -8 -10 1 -5 7 4 14 -3 18 -16 8 -27 32 -86 46 -111 5 -10 7 -23
3 -29 -4 -7 -3 -8 4 -4 7 4 12 2 12 -4 0 -34 153 -203 235 -260 84 -58 211
-110 315 -129 57 -10 232 -8 285 3 329 71 563 319 622 656 3 19 6 76 5 125 0
285 -168 553 -428 684 -72 36 -174 70 -221 74 -18 1 -33 4 -33 7 0 3 -45 5
-100 5 -55 0 -100 -4 -100 -8z"/>
<path d="M3433 2085 c0 -8 4 -12 9 -9 5 3 6 10 3 15 -9 13 -12 11 -12 -6z"/>
<path d="M3676 2078 c3 -5 10 -6 15 -3 13 9 11 12 -6 12 -8 0 -12 -4 -9 -9z"/>
<path d="M3195 2011 c-3 -5 -2 -12 3 -15 5 -3 9 1 9 9 0 17 -3 19 -12 6z"/>
<path d="M3276 1847 c3 -10 9 -15 12 -12 3 3 0 11 -7 18 -10 9 -11 8 -5 -6z"/>
<path d="M2953 1835 c0 -8 4 -12 9 -9 5 3 6 10 3 15 -9 13 -12 11 -12 -6z"/>
<path d="M3113 1765 c0 -8 4 -12 9 -9 5 3 6 10 3 15 -9 13 -12 11 -12 -6z"/>
<path d="M3787 1719 c7 -7 15 -10 18 -7 3 3 -2 9 -12 12 -14 6 -15 5 -6 -5z"/>
<path d="M3556 1273 c-6 -14 -5 -15 5 -6 7 7 10 15 7 18 -3 3 -9 -2 -12 -12z"/>
</g>
</svg>
